<?xml version="1.0" standalone="no"?>
<!DOCTYPE svg PUBLIC "-//W3C//DTD SVG 1.1//EN"
"http://www.w3.org/Graphics/SVG/1.1/DTD/svg11.dtd">

<svg width="1581" height="297" view_box="0 0 1581 297"
xmlns="http://www.w3.org/2000/svg"
xmlns:link="http://www.w3.org/1999/xlink">\n\n<desc>Généré par Mocodo 2.3.7 le Thu, 21 Feb 2019 10:27:49</desc>

<rect id="frame" x="0" y="0" width="1581" height="297" fill="#ffffff" stroke="none" stroke-width="0"/>

<!-- Association from country -->
<line x1="611" y1="111" x2="1525" y2="263" stroke="#878787" stroke-width="2"/>
<text x="662" y="111.905677161" fill="#b2182b" font-family="Verdana" font-size="12">0,N</text>
<line x1="1032" y1="111" x2="1525" y2="263" stroke="#878787" stroke-width="2"/>
<text x="1090" y="121.73797715" fill="#b2182b" font-family="Verdana" font-size="12">1,1</text>
<g id="association-from country">
	<path d="M 1558 238 a 14 14 90 0 1 14 14 V 263 h -94 V 252 a 14 14 90 0 1 14 -14" fill="#bababa" stroke="#bababa" stroke-width="0"/>
	<path d="M 1572 263.0 v 11 a 14 14 90 0 1 -14 14 H 1492 a 14 14 90 0 1 -14 -14 V 263.0 H 94" fill="#e0e0e0" stroke="#e0e0e0" stroke-width="0"/>
	<rect x="1478" y="238" width="94" height="50" fill="none" rx="14" stroke="#878787" stroke-width="2"/>
	<line x1="1478" y1="263" x2="1572" y2="263" stroke="#878787" stroke-width="1"/>
	<text x="1485" y="255.7" fill="#000000" font-family="Verdana" font-size="12">from country</text>
</g>

<!-- Association done in competition -->
<line x1="235" y1="111" x2="77" y2="263" stroke="#878787" stroke-width="2"/>
<text x="189.464615552" y="170" fill="#b2182b" font-family="Verdana" font-size="12">1,N</text>
<line x1="77" y1="111" x2="77" y2="263" stroke="#878787" stroke-width="2"/>
<text x="51.0" y="230" fill="#b2182b" font-family="Verdana" font-size="12">1,1</text>
<g id="association-done in competition">
	<path d="M 131 238 a 14 14 90 0 1 14 14 V 263 h -136 V 252 a 14 14 90 0 1 14 -14" fill="#bababa" stroke="#bababa" stroke-width="0"/>
	<path d="M 145 263.0 v 11 a 14 14 90 0 1 -14 14 H 23 a 14 14 90 0 1 -14 -14 V 263.0 H 136" fill="#e0e0e0" stroke="#e0e0e0" stroke-width="0"/>
	<rect x="9" y="238" width="136" height="50" fill="none" rx="14" stroke="#878787" stroke-width="2"/>
	<line x1="9" y1="263" x2="145" y2="263" stroke="#878787" stroke-width="1"/>
	<text x="16" y="255.7" fill="#000000" font-family="Verdana" font-size="12">done in competition</text>
</g>

<!-- Association is a championship of competition -->
<line x1="235" y1="111" x2="1339" y2="263" stroke="#878787" stroke-width="2"/>
<text x="299" y="112.153715021" fill="#b2182b" font-family="Verdana" font-size="12">1,N</text>
<line x1="885" y1="111" x2="1339" y2="263" stroke="#878787" stroke-width="2"/>
<text x="952" y="126.368435381" fill="#b2182b" font-family="Verdana" font-size="12">1,1</text>
<g id="association-is a championship of competition">
	<path d="M 1432 238 a 14 14 90 0 1 14 14 V 263 h -214 V 252 a 14 14 90 0 1 14 -14" fill="#bababa" stroke="#bababa" stroke-width="0"/>
	<path d="M 1446 263.0 v 11 a 14 14 90 0 1 -14 14 H 1246 a 14 14 90 0 1 -14 -14 V 263.0 H 214" fill="#e0e0e0" stroke="#e0e0e0" stroke-width="0"/>
	<rect x="1232" y="238" width="214" height="50" fill="none" rx="14" stroke="#878787" stroke-width="2"/>
	<line x1="1232" y1="263" x2="1446" y2="263" stroke="#878787" stroke-width="1"/>
	<text x="1239" y="255.7" fill="#000000" font-family="Verdana" font-size="12">is a championship of competition</text>
</g>

<!-- Association done by -->
<line x1="1032" y1="111" x2="487" y2="263" stroke="#878787" stroke-width="2"/>
<text x="952" y="119.941188354" fill="#b2182b" font-family="Verdana" font-size="12">1,N</text>
<line x1="77" y1="111" x2="487" y2="263" stroke="#878787" stroke-width="2"/>
<text x="146" y="129.625754754" fill="#b2182b" font-family="Verdana" font-size="12">1,1</text>
<g id="association-done by">
	<path d="M 505 238 a 14 14 90 0 1 14 14 V 263 h -64 V 252 a 14 14 90 0 1 14 -14" fill="#bababa" stroke="#bababa" stroke-width="0"/>
	<path d="M 519 263.0 v 11 a 14 14 90 0 1 -14 14 H 469 a 14 14 90 0 1 -14 -14 V 263.0 H 64" fill="#e0e0e0" stroke="#e0e0e0" stroke-width="0"/>
	<rect x="455" y="238" width="64" height="50" fill="none" rx="14" stroke="#878787" stroke-width="2"/>
	<line x1="455" y1="263" x2="519" y2="263" stroke="#878787" stroke-width="1"/>
	<text x="462" y="255.7" fill="#000000" font-family="Verdana" font-size="12">done by</text>
</g>

<!-- Association in country -->
<line x1="611" y1="111" x2="1032" y2="263" stroke="#878787" stroke-width="2"/>
<text x="662" y="122.429517011" fill="#b2182b" font-family="Verdana" font-size="12">0,N</text>
<line x1="487" y1="111" x2="1032" y2="263" stroke="#878787" stroke-width="2"/>
<text x="538" y="117.988894776" fill="#b2182b" font-family="Verdana" font-size="12">1,1</text>
<g id="association-in country">
	<path d="M 1056 238 a 14 14 90 0 1 14 14 V 263 h -76 V 252 a 14 14 90 0 1 14 -14" fill="#bababa" stroke="#bababa" stroke-width="0"/>
	<path d="M 1070 263.0 v 11 a 14 14 90 0 1 -14 14 H 1008 a 14 14 90 0 1 -14 -14 V 263.0 H 76" fill="#e0e0e0" stroke="#e0e0e0" stroke-width="0"/>
	<rect x="994" y="238" width="76" height="50" fill="none" rx="14" stroke="#878787" stroke-width="2"/>
	<line x1="994" y1="263" x2="1070" y2="263" stroke="#878787" stroke-width="1"/>
	<text x="1001" y="255.7" fill="#000000" font-family="Verdana" font-size="12">in country</text>
</g>

<!-- Association round of type -->
<line x1="1339" y1="111" x2="374" y2="263" stroke="#878787" stroke-width="2"/>
<text x="1257" y="112.849539608" fill="#b2182b" font-family="Verdana" font-size="12">1,N</text>
<line x1="77" y1="111" x2="374" y2="263" stroke="#878787" stroke-width="2"/>
<text x="146" y="139.752114393" fill="#b2182b" font-family="Verdana" font-size="12">1,1</text>
<g id="association-round of type">
	<path d="M 409 238 a 14 14 90 0 1 14 14 V 263 h -98 V 252 a 14 14 90 0 1 14 -14" fill="#bababa" stroke="#bababa" stroke-width="0"/>
	<path d="M 423 263.0 v 11 a 14 14 90 0 1 -14 14 H 339 a 14 14 90 0 1 -14 -14 V 263.0 H 98" fill="#e0e0e0" stroke="#e0e0e0" stroke-width="0"/>
	<rect x="325" y="238" width="98" height="50" fill="none" rx="14" stroke="#878787" stroke-width="2"/>
	<line x1="325" y1="263" x2="423" y2="263" stroke="#878787" stroke-width="1"/>
	<text x="332" y="255.7" fill="#000000" font-family="Verdana" font-size="12">round of type</text>
</g>

<!-- Association began day -->
<line x1="374" y1="111" x2="740" y2="263" stroke="#878787" stroke-width="2"/>
<text x="404" y="116.635286049" fill="#b2182b" font-family="Verdana" font-size="12">1,N</text>
<line x1="235" y1="111" x2="740" y2="263" stroke="#878787" stroke-width="2"/>
<text x="299" y="123.096460513" fill="#b2182b" font-family="Verdana" font-size="12">1,1</text>
<g id="association-began day">
	<path d="M 765 238 a 14 14 90 0 1 14 14 V 263 h -78 V 252 a 14 14 90 0 1 14 -14" fill="#bababa" stroke="#bababa" stroke-width="0"/>
	<path d="M 779 263.0 v 11 a 14 14 90 0 1 -14 14 H 715 a 14 14 90 0 1 -14 -14 V 263.0 H 78" fill="#e0e0e0" stroke="#e0e0e0" stroke-width="0"/>
	<rect x="701" y="238" width="78" height="50" fill="none" rx="14" stroke="#878787" stroke-width="2"/>
	<line x1="701" y1="263" x2="779" y2="263" stroke="#878787" stroke-width="1"/>
	<text x="708" y="255.7" fill="#000000" font-family="Verdana" font-size="12">began day</text>
</g>

<!-- Association done with rubiks -->
<line x1="1157" y1="111" x2="235" y2="263" stroke="#878787" stroke-width="2"/>
<text x="1090" y="110.838726834" fill="#b2182b" font-family="Verdana" font-size="12">1,N</text>
<line x1="77" y1="111" x2="235" y2="263" stroke="#878787" stroke-width="2"/>
<text x="146" y="171.447109964" fill="#b2182b" font-family="Verdana" font-size="12">1,1</text>
<g id="association-done with rubiks">
	<path d="M 279 238 a 14 14 90 0 1 14 14 V 263 h -116 V 252 a 14 14 90 0 1 14 -14" fill="#bababa" stroke="#bababa" stroke-width="0"/>
	<path d="M 293 263.0 v 11 a 14 14 90 0 1 -14 14 H 191 a 14 14 90 0 1 -14 -14 V 263.0 H 116" fill="#e0e0e0" stroke="#e0e0e0" stroke-width="0"/>
	<rect x="177" y="238" width="116" height="50" fill="none" rx="14" stroke="#878787" stroke-width="2"/>
	<line x1="177" y1="263" x2="293" y2="263" stroke="#878787" stroke-width="1"/>
	<text x="184" y="255.7" fill="#000000" font-family="Verdana" font-size="12">done with rubiks</text>
</g>

<!-- Association ended day -->
<line x1="374" y1="111" x2="885" y2="263" stroke="#878787" stroke-width="2"/>
<text x="404" y="112.745895275" fill="#b2182b" font-family="Verdana" font-size="12">1,N</text>
<line x1="235" y1="111" x2="885" y2="263" stroke="#878787" stroke-width="2"/>
<text x="299" y="118.592763041" fill="#b2182b" font-family="Verdana" font-size="12">1,1</text>
<g id="association-ended day">
	<path d="M 910 238 a 14 14 90 0 1 14 14 V 263 h -78 V 252 a 14 14 90 0 1 14 -14" fill="#bababa" stroke="#bababa" stroke-width="0"/>
	<path d="M 924 263.0 v 11 a 14 14 90 0 1 -14 14 H 860 a 14 14 90 0 1 -14 -14 V 263.0 H 78" fill="#e0e0e0" stroke="#e0e0e0" stroke-width="0"/>
	<rect x="846" y="238" width="78" height="50" fill="none" rx="14" stroke="#878787" stroke-width="2"/>
	<line x1="846" y1="263" x2="924" y2="263" stroke="#878787" stroke-width="1"/>
	<text x="853" y="255.7" fill="#000000" font-family="Verdana" font-size="12">ended day</text>
</g>

<!-- Association in continent -->
<line x1="740" y1="111" x2="1157" y2="263" stroke="#878787" stroke-width="2"/>
<text x="796" y="124.439092492" fill="#b2182b" font-family="Verdana" font-size="12">0,N</text>
<line x1="611" y1="111" x2="1157" y2="263" stroke="#878787" stroke-width="2"/>
<text x="662" y="117.961269469" fill="#b2182b" font-family="Verdana" font-size="12">1,1</text>
<g id="association-in continent">
	<path d="M 1186 238 a 14 14 90 0 1 14 14 V 263 h -86 V 252 a 14 14 90 0 1 14 -14" fill="#bababa" stroke="#bababa" stroke-width="0"/>
	<path d="M 1200 263.0 v 11 a 14 14 90 0 1 -14 14 H 1128 a 14 14 90 0 1 -14 -14 V 263.0 H 86" fill="#e0e0e0" stroke="#e0e0e0" stroke-width="0"/>
	<rect x="1114" y="238" width="86" height="50" fill="none" rx="14" stroke="#878787" stroke-width="2"/>
	<line x1="1114" y1="263" x2="1200" y2="263" stroke="#878787" stroke-width="1"/>
	<text x="1121" y="255.7" fill="#000000" font-family="Verdana" font-size="12">in continent</text>
</g>

<!-- Association in city -->
<line x1="487" y1="111" x2="611" y2="263" stroke="#878787" stroke-width="2"/>
<text x="507.666960686" y="179" fill="#b2182b" font-family="Verdana" font-size="12">1,N</text>
<line x1="235" y1="111" x2="611" y2="263" stroke="#878787" stroke-width="2"/>
<text x="299" y="130.016602815" fill="#b2182b" font-family="Verdana" font-size="12">1,1</text>
<g id="association-in city">
	<path d="M 623 238 a 14 14 90 0 1 14 14 V 263 h -52 V 252 a 14 14 90 0 1 14 -14" fill="#bababa" stroke="#bababa" stroke-width="0"/>
	<path d="M 637 263.0 v 11 a 14 14 90 0 1 -14 14 H 599 a 14 14 90 0 1 -14 -14 V 263.0 H 52" fill="#e0e0e0" stroke="#e0e0e0" stroke-width="0"/>
	<rect x="585" y="238" width="52" height="50" fill="none" rx="14" stroke="#878787" stroke-width="2"/>
	<line x1="585" y1="263" x2="637" y2="263" stroke="#878787" stroke-width="1"/>
	<text x="592" y="255.7" fill="#000000" font-family="Verdana" font-size="12">in city</text>
</g>

<!-- Entity City -->
<g id="entity-City">
	<g id="frame-City">
		<rect x="441" y="60" width="92" height="25" fill="#f4a582" stroke="#f4a582" stroke-width="0"/>
		<rect x="441" y="85.0" width="92" height="77" fill="#fddbc7" stroke="#fddbc7" stroke-width="0"/>
		<rect x="441" y="60" width="92" height="102" fill="none" stroke="#d6604d" stroke-width="2"/>
		<line x1="441" y1="85" x2="533" y2="85" stroke="#d6604d" stroke-width="1"/>
	</g>
	<text x="474" y="77.7" fill="#000000" font-family="Verdana" font-size="12">City</text>
	<text x="446" y="102.7" fill="#000000" font-family="Verdana" font-size="12">cityId</text>
	<line x1="446" y1="105" x2="481" y2="105" stroke="#000000" stroke-width="1"/>
	<text x="446" y="119.8" fill="#000000" font-family="Verdana" font-size="12">cityName</text>
	<text x="446" y="136.8" fill="#000000" font-family="Verdana" font-size="12">cityLongitude</text>
	<text x="446" y="153.8" fill="#000000" font-family="Verdana" font-size="12">cityLatitude</text>
</g>

<!-- Entity Championship -->
<g id="entity-Championship">
	<g id="frame-Championship">
		<rect x="823" y="77" width="124" height="25" fill="#f4a582" stroke="#f4a582" stroke-width="0"/>
		<rect x="823" y="102.0" width="124" height="43" fill="#fddbc7" stroke="#fddbc7" stroke-width="0"/>
		<rect x="823" y="77" width="124" height="68" fill="none" stroke="#d6604d" stroke-width="2"/>
		<line x1="823" y1="102" x2="947" y2="102" stroke="#d6604d" stroke-width="1"/>
	</g>
	<text x="842" y="94.7" fill="#000000" font-family="Verdana" font-size="12">Championship</text>
	<text x="828" y="119.8" fill="#000000" font-family="Verdana" font-size="12">championshipId</text>
	<line x1="828" y1="122" x2="925" y2="122" stroke="#000000" stroke-width="1"/>
	<text x="828" y="136.8" fill="#000000" font-family="Verdana" font-size="12">championshipType</text>
</g>

<!-- Entity Country -->
<g id="entity-Country">
	<g id="frame-Country">
		<rect x="565" y="69" width="92" height="25" fill="#f4a582" stroke="#f4a582" stroke-width="0"/>
		<rect x="565" y="94.0" width="92" height="59" fill="#fddbc7" stroke="#fddbc7" stroke-width="0"/>
		<rect x="565" y="69" width="92" height="84" fill="none" stroke="#d6604d" stroke-width="2"/>
		<line x1="565" y1="94" x2="657" y2="94" stroke="#d6604d" stroke-width="1"/>
	</g>
	<text x="586" y="86.7" fill="#000000" font-family="Verdana" font-size="12">Country</text>
	<text x="570" y="111.8" fill="#000000" font-family="Verdana" font-size="12">countryId</text>
	<line x1="570" y1="114" x2="629" y2="114" stroke="#000000" stroke-width="1"/>
	<text x="570" y="128.8" fill="#000000" font-family="Verdana" font-size="12">countryName</text>
	<text x="570" y="145.8" fill="#000000" font-family="Verdana" font-size="12">iso2</text>
</g>

<!-- Entity Competition -->
<g id="entity-Competition">
	<g id="frame-Competition">
		<rect x="176" y="69" width="118" height="25" fill="#f4a582" stroke="#f4a582" stroke-width="0"/>
		<rect x="176" y="94.0" width="118" height="59" fill="#fddbc7" stroke="#fddbc7" stroke-width="0"/>
		<rect x="176" y="69" width="118" height="84" fill="none" stroke="#d6604d" stroke-width="2"/>
		<line x1="176" y1="94" x2="294" y2="94" stroke="#d6604d" stroke-width="1"/>
	</g>
	<text x="198" y="86.7" fill="#000000" font-family="Verdana" font-size="12">Competition</text>
	<text x="181" y="111.8" fill="#000000" font-family="Verdana" font-size="12">competitionId</text>
	<line x1="181" y1="114" x2="265" y2="114" stroke="#000000" stroke-width="1"/>
	<text x="181" y="128.8" fill="#000000" font-family="Verdana" font-size="12">competitionName</text>
	<text x="181" y="145.8" fill="#000000" font-family="Verdana" font-size="12">venue</text>
</g>

<!-- Entity Event -->
<g id="entity-Event">
	<g id="frame-Event">
		<rect x="1117" y="77" width="80" height="25" fill="#f4a582" stroke="#f4a582" stroke-width="0"/>
		<rect x="1117" y="102.0" width="80" height="43" fill="#fddbc7" stroke="#fddbc7" stroke-width="0"/>
		<rect x="1117" y="77" width="80" height="68" fill="none" stroke="#d6604d" stroke-width="2"/>
		<line x1="1117" y1="102" x2="1197" y2="102" stroke="#d6604d" stroke-width="1"/>
	</g>
	<text x="1139" y="94.7" fill="#000000" font-family="Verdana" font-size="12">Event</text>
	<text x="1122" y="119.8" fill="#000000" font-family="Verdana" font-size="12">eventId</text>
	<line x1="1122" y1="122" x2="1169" y2="122" stroke="#000000" stroke-width="1"/>
	<text x="1122" y="136.8" fill="#000000" font-family="Verdana" font-size="12">eventName</text>
</g>

<!-- Entity Person -->
<g id="entity-Person">
	<g id="frame-Person">
		<rect x="979" y="60" width="106" height="25" fill="#f4a582" stroke="#f4a582" stroke-width="0"/>
		<rect x="979" y="85.0" width="106" height="77" fill="#fddbc7" stroke="#fddbc7" stroke-width="0"/>
		<rect x="979" y="60" width="106" height="102" fill="none" stroke="#d6604d" stroke-width="2"/>
		<line x1="979" y1="85" x2="1085" y2="85" stroke="#d6604d" stroke-width="1"/>
	</g>
	<text x="1011" y="77.7" fill="#000000" font-family="Verdana" font-size="12">Person</text>
	<text x="984" y="102.7" fill="#000000" font-family="Verdana" font-size="12">personId</text>
	<line x1="984" y1="105" x2="1038" y2="105" stroke="#000000" stroke-width="1"/>
	<text x="984" y="119.8" fill="#000000" font-family="Verdana" font-size="12">personName</text>
	<text x="984" y="136.8" fill="#000000" font-family="Verdana" font-size="12">personSurname</text>
	<text x="984" y="153.8" fill="#000000" font-family="Verdana" font-size="12">gender</text>
</g>

<!-- Entity Result -->
<g id="entity-Result">
	<g id="frame-Result">
		<rect x="13" y="9" width="128" height="25" fill="#f4a582" stroke="#f4a582" stroke-width="0"/>
		<rect x="13" y="34.0" width="128" height="179" fill="#fddbc7" stroke="#fddbc7" stroke-width="0"/>
		<rect x="13" y="9" width="128" height="204" fill="none" stroke="#d6604d" stroke-width="2"/>
		<line x1="13" y1="34" x2="141" y2="34" stroke="#d6604d" stroke-width="1"/>
	</g>
	<text x="58" y="26.7" fill="#000000" font-family="Verdana" font-size="12">Result</text>
	<text x="18" y="51.7" fill="#000000" font-family="Verdana" font-size="12">resultId</text>
	<line x1="18" y1="54" x2="66" y2="54" stroke="#000000" stroke-width="1"/>
	<text x="18" y="68.7" fill="#000000" font-family="Verdana" font-size="12">best</text>
	<text x="18" y="85.7" fill="#000000" font-family="Verdana" font-size="12">average</text>
	<text x="18" y="102.7" fill="#000000" font-family="Verdana" font-size="12">time1</text>
	<text x="18" y="119.8" fill="#000000" font-family="Verdana" font-size="12">time2</text>
	<text x="18" y="136.8" fill="#000000" font-family="Verdana" font-size="12">time3</text>
	<text x="18" y="153.8" fill="#000000" font-family="Verdana" font-size="12">time4</text>
	<text x="18" y="170.8" fill="#000000" font-family="Verdana" font-size="12">time5</text>
	<text x="18" y="187.8" fill="#000000" font-family="Verdana" font-size="12">recordSingleType</text>
	<text x="18" y="204.8" fill="#000000" font-family="Verdana" font-size="12">recordAverageType</text>
</g>

<!-- Entity RoundType -->
<g id="entity-RoundType">
	<g id="frame-RoundType">
		<rect x="1284" y="77" width="110" height="25" fill="#f4a582" stroke="#f4a582" stroke-width="0"/>
		<rect x="1284" y="102.0" width="110" height="43" fill="#fddbc7" stroke="#fddbc7" stroke-width="0"/>
		<rect x="1284" y="77" width="110" height="68" fill="none" stroke="#d6604d" stroke-width="2"/>
		<line x1="1284" y1="102" x2="1394" y2="102" stroke="#d6604d" stroke-width="1"/>
	</g>
	<text x="1304" y="94.7" fill="#000000" font-family="Verdana" font-size="12">RoundType</text>
	<text x="1289" y="119.8" fill="#000000" font-family="Verdana" font-size="12">roundTypeId</text>
	<line x1="1289" y1="122" x2="1367" y2="122" stroke="#000000" stroke-width="1"/>
	<text x="1289" y="136.8" fill="#000000" font-family="Verdana" font-size="12">roundTypeName</text>
</g>

<!-- Entity Date -->
<g id="entity-Date">
	<g id="frame-Date">
		<rect x="349" y="77" width="50" height="25" fill="#f4a582" stroke="#f4a582" stroke-width="0"/>
		<rect x="349" y="102.0" width="50" height="43" fill="#fddbc7" stroke="#fddbc7" stroke-width="0"/>
		<rect x="349" y="77" width="50" height="68" fill="none" stroke="#d6604d" stroke-width="2"/>
		<line x1="349" y1="102" x2="399" y2="102" stroke="#d6604d" stroke-width="1"/>
	</g>
	<text x="359" y="94.7" fill="#000000" font-family="Verdana" font-size="12">Date</text>
	<text x="354" y="119.8" fill="#000000" font-family="Verdana" font-size="12">dateId</text>
	<line x1="354" y1="122" x2="394" y2="122" stroke="#000000" stroke-width="1"/>
	<text x="354" y="136.8" fill="#000000" font-family="Verdana" font-size="12">date</text>
</g>

<!-- Entity Continent -->
<g id="entity-Continent">
	<g id="frame-Continent">
		<rect x="689" y="69" width="102" height="25" fill="#f4a582" stroke="#f4a582" stroke-width="0"/>
		<rect x="689" y="94.0" width="102" height="59" fill="#fddbc7" stroke="#fddbc7" stroke-width="0"/>
		<rect x="689" y="69" width="102" height="84" fill="none" stroke="#d6604d" stroke-width="2"/>
		<line x1="689" y1="94" x2="791" y2="94" stroke="#d6604d" stroke-width="1"/>
	</g>
	<text x="710" y="86.7" fill="#000000" font-family="Verdana" font-size="12">Continent</text>
	<text x="694" y="111.8" fill="#000000" font-family="Verdana" font-size="12">continentId</text>
	<line x1="694" y1="114" x2="764" y2="114" stroke="#000000" stroke-width="1"/>
	<text x="694" y="128.8" fill="#000000" font-family="Verdana" font-size="12">continentName</text>
	<text x="694" y="145.8" fill="#000000" font-family="Verdana" font-size="12">recordName</text>
</g>
</svg>